<mxfile modified="2023-01-20T21:57:25.605Z" host="app.diagrams.net" agent="5.0 (Macintosh)" etag="qMVWByX9RAIFK_SU3AmJ" version="20.8.10" type="github">
  <diagram id="Ht1M8jgEwFfnCIfOTk4-" name="Page-1">
    <mxGraphModel dx="1985" dy="1178" grid="1" gridSize="10" guides="1" tooltips="1" connect="1" arrows="1" fold="1" page="1" pageScale="1" pageWidth="1169" pageHeight="827" math="0" shadow="0">
      <root>
        <mxCell id="0" />
        <mxCell id="1" parent="0" />
        <mxCell id="QDbpUaDNIKdgs6BWBZCg-3" value="" style="whiteSpace=wrap;html=1;" vertex="1" parent="1">
          <mxGeometry x="170" y="70" width="500" height="330" as="geometry" />
        </mxCell>
        <mxCell id="QDbpUaDNIKdgs6BWBZCg-5" value="&lt;font style=&quot;font-size: 33px;&quot;&gt;ether1 : 10.10.16.0/20&lt;/font&gt;" style="rounded=1;whiteSpace=wrap;html=1;fillColor=#fff2cc;strokeColor=#d6b656;" vertex="1" parent="1">
          <mxGeometry x="200" y="90" width="440" height="60" as="geometry" />
        </mxCell>
        <mxCell id="QDbpUaDNIKdgs6BWBZCg-6" value="&lt;font style=&quot;font-size: 33px;&quot;&gt;ether2 : 10.10.16.0/20&lt;/font&gt;" style="rounded=1;whiteSpace=wrap;html=1;fillColor=#fff2cc;strokeColor=#d6b656;" vertex="1" parent="1">
          <mxGeometry x="205" y="160" width="430" height="60" as="geometry" />
        </mxCell>
        <mxCell id="QDbpUaDNIKdgs6BWBZCg-7" value="&lt;font style=&quot;font-size: 33px;&quot;&gt;Gre-Tunnel1: 10.10.16.0/20&lt;/font&gt;" style="rounded=1;whiteSpace=wrap;html=1;fillColor=#fff2cc;strokeColor=#d6b656;" vertex="1" parent="1">
          <mxGeometry x="205" y="230" width="430" height="60" as="geometry" />
        </mxCell>
        <mxCell id="QDbpUaDNIKdgs6BWBZCg-9" value="&lt;font style=&quot;font-size: 33px;&quot;&gt;Gre-Tunnel2: 10.10.16.0/20&lt;/font&gt;" style="rounded=1;whiteSpace=wrap;html=1;fillColor=#fff2cc;strokeColor=#d6b656;" vertex="1" parent="1">
          <mxGeometry x="205" y="310" width="430" height="60" as="geometry" />
        </mxCell>
        <mxCell id="QDbpUaDNIKdgs6BWBZCg-11" value="" style="whiteSpace=wrap;html=1;" vertex="1" parent="1">
          <mxGeometry x="840" y="70" width="500" height="330" as="geometry" />
        </mxCell>
        <mxCell id="QDbpUaDNIKdgs6BWBZCg-12" value="&lt;font style=&quot;font-size: 33px;&quot;&gt;ether1 : 10.10.16.0/20&lt;/font&gt;" style="rounded=1;whiteSpace=wrap;html=1;fillColor=#fff2cc;strokeColor=#d6b656;" vertex="1" parent="1">
          <mxGeometry x="870" y="90" width="440" height="60" as="geometry" />
        </mxCell>
        <mxCell id="QDbpUaDNIKdgs6BWBZCg-13" value="&lt;font style=&quot;font-size: 33px;&quot;&gt;ether2 : 10.10.16.0/20&lt;/font&gt;" style="rounded=1;whiteSpace=wrap;html=1;fillColor=#fff2cc;strokeColor=#d6b656;" vertex="1" parent="1">
          <mxGeometry x="875" y="160" width="430" height="60" as="geometry" />
        </mxCell>
        <mxCell id="QDbpUaDNIKdgs6BWBZCg-14" value="&lt;font style=&quot;font-size: 33px;&quot;&gt;Gre-Tunnel1: 10.10.16.0/20&lt;/font&gt;" style="rounded=1;whiteSpace=wrap;html=1;fillColor=#fff2cc;strokeColor=#d6b656;" vertex="1" parent="1">
          <mxGeometry x="875" y="230" width="430" height="60" as="geometry" />
        </mxCell>
        <mxCell id="QDbpUaDNIKdgs6BWBZCg-15" value="&lt;font style=&quot;font-size: 33px;&quot;&gt;Gre-Tunnel2: 10.10.16.0/20&lt;/font&gt;" style="rounded=1;whiteSpace=wrap;html=1;fillColor=#fff2cc;strokeColor=#d6b656;" vertex="1" parent="1">
          <mxGeometry x="875" y="310" width="430" height="60" as="geometry" />
        </mxCell>
        <mxCell id="QDbpUaDNIKdgs6BWBZCg-16" value="" style="whiteSpace=wrap;html=1;" vertex="1" parent="1">
          <mxGeometry x="1530" y="70" width="500" height="330" as="geometry" />
        </mxCell>
        <mxCell id="QDbpUaDNIKdgs6BWBZCg-17" value="&lt;font style=&quot;font-size: 33px;&quot;&gt;ether1 : 10.10.16.0/20&lt;/font&gt;" style="rounded=1;whiteSpace=wrap;html=1;fillColor=#fff2cc;strokeColor=#d6b656;" vertex="1" parent="1">
          <mxGeometry x="1560" y="90" width="440" height="60" as="geometry" />
        </mxCell>
        <mxCell id="QDbpUaDNIKdgs6BWBZCg-18" value="&lt;font style=&quot;font-size: 33px;&quot;&gt;ether2 : 10.10.16.0/20&lt;/font&gt;" style="rounded=1;whiteSpace=wrap;html=1;fillColor=#fff2cc;strokeColor=#d6b656;" vertex="1" parent="1">
          <mxGeometry x="1565" y="160" width="430" height="60" as="geometry" />
        </mxCell>
        <mxCell id="QDbpUaDNIKdgs6BWBZCg-19" value="&lt;font style=&quot;font-size: 33px;&quot;&gt;Gre-Tunnel1: 10.10.16.0/20&lt;/font&gt;" style="rounded=1;whiteSpace=wrap;html=1;fillColor=#fff2cc;strokeColor=#d6b656;" vertex="1" parent="1">
          <mxGeometry x="1565" y="230" width="430" height="60" as="geometry" />
        </mxCell>
        <mxCell id="QDbpUaDNIKdgs6BWBZCg-20" value="&lt;font style=&quot;font-size: 33px;&quot;&gt;Gre-Tunnel2: 10.10.16.0/20&lt;/font&gt;" style="rounded=1;whiteSpace=wrap;html=1;fillColor=#fff2cc;strokeColor=#d6b656;" vertex="1" parent="1">
          <mxGeometry x="1565" y="310" width="430" height="60" as="geometry" />
        </mxCell>
      </root>
    </mxGraphModel>
  </diagram>
</mxfile>
